<?xml version="1.0" encoding="utf-8"?>
<!-- Generator: Adobe Illustrator 19.1.0, SVG Export Plug-In . SVG Version: 6.00 Build 0)  -->
<svg version="1.1" id="Layer_1" xmlns="http://www.w3.org/2000/svg" xmlns:xlink="http://www.w3.org/1999/xlink" x="0px" y="0px"
	 viewBox="0 0 245.2 162" style="enable-background:new 0 0 245.2 162;" xml:space="preserve">
<style type="text/css">
	.st0{fill:#231F20;}
	.st1{fill:#F7931E;}
	.st2{fill:#3F3B3C;}
</style>
<path class="st0" d="M43.8,162L43.8,162l-7.2-0.4l-7.1,0.3l-7.2-0.4l-7.1,0.4l-7.2-0.4l-7.7,0.3l0.3-7.9l-0.3-7.3l0.2-7.3l0.2-14.6
	l-0.1-7.3l0-7.3L0.2,103L0,88.3L0.3,81l0.1-7.3l-0.2-7.3l0.2-7.3l0-7.3L0,44.6l0.4-7.4L0.5,30l-0.4-7.3l0-7.3L0,8.1l0.2-7.8l7.7,0.2
	l7.2,0l7.2,0l7.2-0.3L36.5,0l7.2,0.5L58,0.5l7.1-0.3l7.2-0.1l7.2,0.4l7.1-0.3l7.2,0l7.2,0.3l7.1-0.1l7.2,0.1l7.1-0.4l7.2,0.4
	l7.1-0.1l7.2,0.2l7.1-0.4l7.2,0.1l7.1-0.3l7.2,0.5l7.1-0.4l7.2,0.2l14.3-0.3l14.4,0.4l7.1-0.3l7.2,0.4l7.1-0.1l7.5,0l0.4,7.6
	l-0.3,7.3l0.1,7.3l-0.2,7.3l0.3,7.3l-0.2,7.3l0.3,7.3l-0.2,7.3l0.2,7.3l-0.1,7.3l-0.3,7.3l0.4,14.6l0.1,7.3l-0.4,7.3l0.2,7.3l0,7.3
	l0.1,7.3l-0.5,7.3l0,7.3l0,7.3l0.4,8l-7.9-0.5l-7.1,0.1l-7.2,0.2l-7.2,0.1l-7.2-0.3l-7.1-0.1l-7.2,0.1l-7.2,0.3l-7.2,0l-7.2,0
	l-7.2-0.1l-7.1,0.2l-7.2-0.2l-7.1,0.1l-7.2-0.2l-7.1,0.4l-7.2-0.1l-7.2,0l-14.4-0.4l-21.5-0.1l-7.2,0.2l-14.4-0.1l-7.2,0.1L43.8,162
	z M36.6,160.7l7.2,0.4l7.1-0.3l7.2-0.1l14.3,0.1l7.2-0.2l7.2,0.1l14.3,0.1l14.3,0.4l7.2,0l7.2,0.1l7.1-0.4l7.2,0.2l7.1-0.1l7.2,0.2
	l7.1-0.2l7.2,0.1l7.2,0l7.2,0l7.1-0.3l7.2-0.1l7.2,0.1l7.2,0.3l7.1-0.1l7.2-0.2l7.2-0.1l6.8,0.4l-0.4-6.9l0-7.3l0-7.3l0.5-7.3
	l-0.1-7.3l0-7.3l-0.2-7.3l0.4-7.3l-0.1-7.3L243.7,81l0.3-7.3l0.1-7.3l-0.2-7.3l0.2-7.3l-0.3-7.3l0.2-7.3l-0.3-7.3l0.2-7.3l-0.1-7.3
	l0.3-7.3l-0.3-6.6l-6.6,0l-7.2,0.1l-7.2-0.4l-7.1,0.3l-14.4-0.4l-14.3,0.3l-7.2-0.2l-7.1,0.4L165.5,1l-7.1,0.3l-7.2-0.1l-7.1,0.4
	l-7.2-0.2l-7.2,0.1l-7.2-0.4l-7.1,0.4l-7.2-0.1l-7.2,0.1l-7.2-0.3l-7.1,0l-7.1,0.3l-7.2-0.4l-7.1,0.1l-7.1,0.3L43.7,1.5L36.5,1
	l-7.1,0.2l-7.2,0.3l-7.2,0l-7.2,0L1.2,1.3L1,8.1l0.1,7.3l0,7.3L1.5,30l-0.1,7.3L1,44.6l0.4,7.2l0,7.3l-0.2,7.3l0.2,7.3l-0.1,7.3
	L1,88.4l0.1,14.6l0.3,7.3l0,7.3l0.1,7.3l-0.2,14.6l-0.2,7.3l0.3,7.3l-0.2,6.8l6.7-0.3l7.2,0.4l7.1-0.4l7.2,0.4L36.6,160.7z"/>
<g>
	<path class="st0" d="M52.6,84.1l0.3,13.3c0,1.5-0.3,2.2-1,2.2c-0.4,0-0.7-0.3-0.9-0.8c-0.2-0.5-0.3-1-0.3-1.5l0.5-9.4
		c0-2-0.1-5-0.4-9.1c-0.3-4.1-0.4-7.1-0.4-9.1l0.1-5.3c0-3.9-0.3-5.9-1-5.9l-3.2,0.3c-0.3,0-0.5-0.1-0.8-0.3
		c-0.3-0.2-0.4-0.4-0.4-0.7c0-0.4,1.3-0.8,3.8-1.1c2.5-0.4,4.5-0.5,6-0.5c0.3,0,0.5,0.1,0.8,0.3c0.3,0.2,0.4,0.4,0.4,0.7
		c0,0.6-0.4,0.8-1.1,0.8l-2.1-0.2c-0.6,0-1,0.2-1.2,0.6c0.3,2.4,0.4,4.9,0.4,7.4l-0.1,6.9c0,4.5,0.3,7.7,0.8,9.7
		C52.6,83,52.6,83.6,52.6,84.1z"/>
	<path class="st0" d="M74.1,90.8l-1.5,0.1c-0.5-0.2-1.1-0.3-1.8-0.3c-0.6,0-1,0-1.1,0.1s-0.1,0.1-0.1,0.2c0,0.1,0,0.2-0.1,0.2
		l-0.1,1.1c-0.1,1-0.3,2.1-0.5,3.5c-0.5,2.7-1.1,4-1.6,4c-0.2,0-0.5-0.1-0.8-0.3c-0.3-0.2-0.4-0.4-0.4-0.7c0.5-1.4,1-3.6,1.5-6.5
		c0.5-2.9,0.8-4.7,1-5.4c0.1-0.7,0.4-2.2,0.7-4.3c0.4-2.2,0.6-3.6,0.7-4.3c0.1-0.7,0.4-2.2,0.9-4.5s0.8-3.8,0.9-4.5
		c0.1-0.7,0.2-1.7,0.3-2.9c0.3-3,0.6-4.6,0.8-5l0.8,0.1c0.5,0,0.8-0.1,1-0.3c0.2,0,0.5,0.1,0.7,0.2c0.2,0.2,0.3,0.4,0.3,0.6
		c0,1.8,0.2,5.3,0.7,10.5c0.5,5.2,0.8,8.6,1.1,10.1c0.3,1.5,0.6,3,0.9,4.5c0.4,1.5,0.5,2.6,0.5,3.4l-0.3,0.8c0,0.9,0.2,2.1,0.5,3.8
		c0.3,1.7,0.5,2.8,0.5,3.5c0,0.7-0.1,1.1-0.4,1.3c-0.8,0-1.3-0.1-1.4-0.3c-0.2-0.2-0.3-0.6-0.3-1.1s0-1.1-0.1-1.8
		c-0.1-0.7-0.1-1.3-0.2-1.7c-0.1-0.4-0.2-1.1-0.3-2c-0.2-0.9-0.3-1.5-0.3-1.8C75.9,90.9,75,90.8,74.1,90.8z M70.1,88
		c0,0.4,0.5,0.7,1.4,1c1.4,0.4,2.9,0.6,4.6,0.6h0.6c-0.2-0.7-0.4-1.6-0.4-2.6v-1.3c0-2.4-0.3-5.8-0.9-10.3
		c-0.6-4.5-0.9-7.9-0.9-10.1c-2,9.8-3.2,15.9-3.7,18.2C70.3,85.8,70.1,87.3,70.1,88z"/>
	<path class="st0" d="M93,76.2l-0.2,11.5c0,3.2,0.3,5.5,0.9,6.9c0.7,1.6,1.6,2.7,2.7,3.2c0.7,0.3,1.4,0.5,2.2,0.5
		c0.7,0,1.3-0.2,1.7-0.5c0.6,0,0.9,0.2,0.9,0.6c0,0.3-0.3,0.6-0.8,1c-0.5,0.4-1,0.6-1.4,0.8H97c-0.2-0.1-0.7-0.3-1.3-0.5
		c-0.6-0.2-1.2-0.5-1.8-0.9c-0.5-0.4-1.1-1.1-1.5-2c-0.5-0.9-0.8-2-1-3.2c-0.3-2-0.5-4.2-0.5-6.7v-6.5c0-5.1,0.2-8.5,0.6-10.4
		c0.7-3.8,1.8-6.2,3-7.2c0.3-0.3,0.8-0.5,1.5-0.8c0.7-0.3,1.2-0.5,1.4-0.6h2.3c0,0,0.1,0,0.2,0c0.1,0,0.1,0,0.2,0c0,0,0.1,0,0.2,0
		c0.1,0,0.1,0,0.1,0c0,0,0.1,0,0.1,0.1c0.1,0,0.1,0.1,0.1,0.1c0.2,0.2,0.3,0.4,0.3,0.6L100,63h-2.4c-0.8,0-1.5,0.4-2,1.1
		c-0.6,0.7-1,1.6-1.3,2.6c-0.3,1-0.6,2.2-0.7,3.5c-0.3,2-0.4,3.9-0.4,5.8L93,76.2z"/>
	<path class="st0" d="M124.7,77.2l0.1,6.8c0,8.6-1.4,13.8-4.1,15.6c-0.7,0.5-1.4,0.7-2.3,0.7c-4.5,0-6.7-7-6.7-21
		c0-5.4,0.4-10.1,1.1-14.1c0.6-2.9,1.4-4.3,2.5-4.3c0.3,0,0.5,0.1,0.7,0.3c0.2,0.2,0.5,0.4,0.9,0.5c0.4,0.1,0.9,0.3,1.6,0.4
		c0.7,0.1,1.2,0.2,1.5,0.3c0.8,0.1,1.5,0.9,2.2,2.2c1.6,2.7,2.4,6.8,2.4,12.3L124.7,77.2z M113.5,79.3l0.1,4.5
		c0,3.6,0.4,7.1,1.2,10.3c0.3,1.2,0.7,2.3,1.3,3.2c0.6,0.9,1.3,1.4,2,1.4c0.8,0,1.4-0.3,2-0.8s1-1.3,1.4-2.3c0.3-1,0.6-2,0.8-3
		c0.2-1,0.4-2.2,0.5-3.5c0.1-2,0.2-3.9,0.2-5.5l-0.6-13.5l-0.2-0.4l0.1-0.3c0-1.7-0.5-3.1-1.4-4.3c-0.9-1.2-2.1-1.8-3.4-1.8h-2.4
		c-0.3,0-0.6,1.7-0.8,5.1c-0.2,3.4-0.4,5.3-0.5,5.6L113.5,79.3z"/>
	<path class="st0" d="M152.1,71.2l-0.5,4.1c0,2.2,0.3,6,0.8,11.2c0.5,5.3,1,8.3,1.5,9.1c1,1.5,2.5,2.3,4.5,2.3c2,0,3.5-0.5,4.4-1.6
		c0.4,0,0.8-0.1,1.3-0.2l0.3,0.3c0,1.8-1.4,3-4.3,3.6c-0.7,0.1-1.5,0.2-2.3,0.2c-0.9,0-1.9-0.4-3-1.3c-1.2-0.9-2-1.8-2.5-2.8
		c-0.5-1-1-4.3-1.4-9.7c-0.5-5.4-0.7-10.2-0.7-14.3s0.1-6.5,0.4-7.3c-0.1-0.6-0.2-1.3-0.2-1.8c0-2.3,0.8-4.1,2.4-5.3s3.6-1.9,6-1.9
		c0.6,0,1.4,0.2,2.1,0.6c0.8,0.4,1.2,0.9,1.2,1.5c0,0.4-0.3,0.6-0.9,0.6c-0.2,0-0.4-0.1-0.7-0.3s-0.5-0.3-0.7-0.3
		c-0.2,0-0.4,0-0.6,0.1c-0.4-0.1-0.9-0.2-1.4-0.2c-0.5,0-1,0.1-1.7,0.3c-0.7,0.2-1.2,0.4-1.6,0.8c-0.4,0.3-0.8,0.7-1.1,1.2
		c-0.3,0.5-0.5,1-0.7,1.5c-0.2,0.5-0.3,1.1-0.4,1.8c-0.1,1.1-0.2,2.4-0.2,3.9L152.1,71.2z"/>
	<path class="st0" d="M188,77.2l0.1,6.8c0,8.6-1.4,13.8-4.1,15.6c-0.7,0.5-1.4,0.7-2.3,0.7c-4.5,0-6.7-7-6.7-21
		c0-5.4,0.4-10.1,1.1-14.1c0.6-2.9,1.4-4.3,2.5-4.3c0.3,0,0.5,0.1,0.7,0.3c0.2,0.2,0.5,0.4,0.9,0.5c0.4,0.1,0.9,0.3,1.6,0.4
		c0.7,0.1,1.2,0.2,1.5,0.3c0.8,0.1,1.5,0.9,2.2,2.2c1.6,2.7,2.4,6.8,2.4,12.3L188,77.2z M176.8,79.3l0.1,4.5c0,3.6,0.4,7.1,1.2,10.3
		c0.3,1.2,0.7,2.3,1.3,3.2c0.6,0.9,1.3,1.4,2,1.4c0.8,0,1.4-0.3,2-0.8s1-1.3,1.3-2.3c0.3-1,0.6-2,0.8-3c0.2-1,0.4-2.2,0.5-3.5
		c0.1-2,0.2-3.9,0.2-5.5l-0.6-13.5l-0.2-0.4l0.1-0.3c0-1.7-0.5-3.1-1.4-4.3c-0.9-1.2-2.1-1.8-3.4-1.8h-2.4c-0.3,0-0.6,1.7-0.8,5.1
		c-0.2,3.4-0.4,5.3-0.5,5.6L176.8,79.3z"/>
	<path class="st0" d="M200.3,99.1c-0.3-0.3-0.4-0.6-0.4-1s0.2-0.7,0.5-1c0.3-0.3,0.6-0.5,1-0.5c0.4,0,0.7,0.2,1,0.5
		c0.3,0.3,0.4,0.7,0.4,1c0,0.9-0.5,1.4-1.6,1.4C200.9,99.5,200.6,99.3,200.3,99.1z"/>
</g>
<g>
	<g>
		<path class="st0" d="M92.8,130.8c0,0.2-0.1,0.4-0.1,0.6c0,0.1-0.1,0.2-0.1,0.5c0,0.3-0.1,0.5-0.1,0.6c0,0,0,0,0,0
			c0,0.1-0.1,0.2-0.2,0.2c-0.1,0-0.2-0.1-0.3-0.2c-0.1-0.1-0.1-0.2,0-0.3c0.1-0.2,0.2-0.6,0.3-1.1c-0.3-0.2-0.6-0.3-0.9-0.5
			c-0.1,0.2-0.3,0.3-0.4,0.6c-0.1,0.2-0.2,0.4-0.3,0.4c-0.1,0.2-0.3,0.2-0.4,0.2c-0.1,0-0.1-0.1-0.2-0.1c0-0.1-0.1-0.1,0-0.2
			c0,0,0,0,0.1-0.1c1-1.3,1.9-2.6,2.6-3.9c0,0,0.1-0.1,0.2-0.3c0.2-0.4,0.3-0.6,0.5-0.7c0.1,0,0.2,0.1,0.3,0.1
			c0.1,0,0.1,0.1,0.2,0.1c0,0.1,0.1,0.1,0,0.2c-0.2,0.4-0.4,1.1-0.6,2C93.1,129.8,92.9,130.4,92.8,130.8z M92.2,130.7
			c0-0.1,0.1-0.2,0.1-0.4c0.1-0.2,0.2-0.5,0.3-0.8c0.1-0.3,0.2-0.7,0.3-1.1c0.1-0.4,0.2-0.7,0.2-0.9c-0.8,1.3-1.4,2.2-1.7,2.8
			C91.5,130.4,91.8,130.5,92.2,130.7z"/>
		<path class="st0" d="M98.7,134.5c0.1-0.2,0.1-0.4,0.2-0.7c0,0,0-0.1,0.1-0.3c0-0.1,0.1-0.7,0.4-2c0.3-1.2,0.5-2,0.5-2.3
			c0,0,0,0,0,0c-0.5-0.1-0.7-0.3-0.6-0.5c0-0.1,0.1-0.1,0.1-0.1c0.1,0,0.1,0,0.2,0c0.4,0.1,0.8,0.3,1.2,0.4c0,0,0.1,0,0.1,0
			c0.2,0.1,0.3,0.1,0.2,0.3c0,0.1-0.1,0.1-0.1,0.1c-0.1,0-0.1,0-0.2,0c-0.1-0.1-0.3-0.1-0.4-0.2c0,0,0,0.1,0,0.1
			c-0.2,0.5-0.3,1.4-0.5,2.5c-0.2,1.1-0.4,2-0.5,2.5c0,0.1-0.1,0.1-0.2,0.2c-0.1,0-0.2,0-0.2,0C98.8,134.6,98.8,134.6,98.7,134.5z"
			/>
		<path class="st0" d="M104.6,134.2c0,0.2,0,0.4,0,0.6c0,0.1,0,0.3,0,0.5c0,0.3,0,0.5,0,0.6c0,0,0,0,0,0c0,0.1-0.1,0.2-0.2,0.2
			c-0.1,0-0.2-0.1-0.3-0.1c-0.1-0.1-0.1-0.1-0.1-0.3c0.1-0.2,0.1-0.6,0.1-1.1c-0.3-0.1-0.6-0.2-0.9-0.3c-0.1,0.2-0.2,0.4-0.3,0.6
			c-0.1,0.2-0.2,0.4-0.2,0.5c-0.1,0.2-0.2,0.3-0.4,0.2c-0.1,0-0.1-0.1-0.2-0.1c-0.1-0.1-0.1-0.1-0.1-0.2c0,0,0,0,0-0.1
			c0.8-1.4,1.5-2.8,2-4.2c0,0,0.1-0.2,0.1-0.3c0.1-0.4,0.2-0.7,0.4-0.8c0.1,0,0.2,0,0.3,0.1c0.1,0,0.1,0.1,0.2,0.1
			c0.1,0,0.1,0.1,0.1,0.2c-0.1,0.4-0.2,1.1-0.2,2C104.7,133.2,104.7,133.8,104.6,134.2z M104,134.3c0-0.1,0-0.2,0.1-0.5
			c0-0.2,0.1-0.5,0.1-0.8c0-0.3,0.1-0.7,0.1-1.1c0-0.4,0.1-0.7,0.1-0.9c-0.6,1.4-1,2.4-1.3,3C103.3,134.1,103.6,134.2,104,134.3z"/>
		<path class="st0" d="M107.2,134.4c0-0.2,0.1-0.3,0.1-0.5c0-0.1,0-0.1,0-0.2c0.2-0.9,0.3-1.5,0.5-1.8c0.2-0.4,0.4-0.7,0.6-0.8
			c0.3-0.2,0.6-0.2,1-0.2c0.1,0,0.2,0,0.2,0.1c0,0.1,0.1,0.1,0,0.2c0,0.1,0,0.1-0.1,0.2c0,0-0.1,0.1-0.2,0.1c-0.1,0-0.3,0-0.4-0.1
			c-0.1,0-0.2,0-0.4,0.2c-0.1,0.1-0.2,0.3-0.3,0.5c-0.2,0.4-0.2,0.8-0.3,1c0,0,0,0,0,0c-0.1,0.6-0.2,1.1-0.3,1.7
			c-0.1,0.4-0.1,0.6-0.1,0.8c0,0.1,0,0.3,0.1,0.4c0,0.1,0.1,0.2,0.1,0.2c0.1,0.2,0.3,0.2,0.5,0.3c0.1,0,0.2,0,0.2,0
			c0.1,0,0.1,0,0.2,0.1c0.1,0,0.1,0.1,0.1,0.2c0,0.2-0.2,0.3-0.6,0.3c-0.1,0-0.3-0.1-0.5-0.1c-0.2-0.1-0.3-0.1-0.3-0.2
			C107.1,136.3,107,135.5,107.2,134.4z"/>
		<path class="st0" d="M111.6,134.5c0-0.1,0-0.2,0.1-0.3c0,0,0,0,0,0c0-0.1,0-0.1,0-0.2c0.1-0.9,0.3-1.6,0.4-2
			c0.1-0.3,0.2-0.5,0.3-0.6c0.1-0.1,0.2-0.1,0.3-0.1c0.7,0.1,1.2,0.5,1.4,1.2c0.1,0.4,0.2,0.9,0.1,1.5c0,0,0,0,0,0.1
			c0,0.3,0,0.7-0.1,1c-0.2,1.7-0.7,2.5-1.6,2.4c-0.4,0-0.6-0.3-0.8-0.6c-0.1-0.4-0.2-0.7-0.2-1.1
			C111.5,135.3,111.6,134.9,111.6,134.5z M112.3,133.3c0,0.3-0.1,0.5-0.1,0.8c-0.1,0.9-0.1,1.6,0,2.3c0.1,0.4,0.3,0.6,0.4,0.7
			c0.1,0,0.2,0,0.3-0.1c0.1-0.1,0.2-0.2,0.3-0.3c0.1-0.1,0.1-0.3,0.2-0.5c0.1-0.2,0.1-0.3,0.1-0.5c0.1-0.3,0.1-0.6,0.1-0.8
			c0-0.2,0-0.6,0-1c0-0.5,0-0.8,0-1c0-0.1,0-0.1,0-0.2c0-0.2,0-0.4-0.2-0.6c-0.1-0.2-0.3-0.3-0.5-0.3c-0.2,0-0.4,0.1-0.5,0.3
			c-0.1,0.2-0.1,0.4-0.2,0.7C112.3,133,112.3,133.2,112.3,133.3z"/>
		<path class="st0" d="M119.5,135.6c0-0.2,0-0.4,0-0.5c0-0.1,0-0.1,0-0.2c0-0.9,0.1-1.5,0.2-1.8c0.1-0.4,0.3-0.7,0.5-0.9
			c0.3-0.2,0.6-0.3,1-0.3c0.1,0,0.2,0,0.2,0.1c0,0,0.1,0.1,0.1,0.2c0,0.1,0,0.1-0.1,0.2c0,0-0.1,0.1-0.1,0.1c-0.1,0-0.3,0-0.4,0
			c-0.1,0-0.2,0.1-0.3,0.2c-0.1,0.2-0.2,0.3-0.2,0.6c-0.1,0.4-0.1,0.8-0.1,1.1c0,0,0,0,0,0c0,0.6,0,1.2-0.1,1.7c0,0.4,0,0.6,0.1,0.8
			c0,0.1,0.1,0.3,0.1,0.3c0,0.1,0.1,0.2,0.2,0.2c0.1,0.1,0.3,0.2,0.6,0.2c0.1,0,0.1,0,0.2-0.1c0.1,0,0.1,0,0.2,0
			c0.1,0,0.1,0.1,0.1,0.2c0,0.2-0.2,0.4-0.5,0.4c-0.1,0-0.3,0-0.5-0.1c-0.2,0-0.3-0.1-0.4-0.1C119.7,137.5,119.5,136.8,119.5,135.6z
			"/>
		<path class="st0" d="M123.8,135c0-0.1,0-0.2,0-0.3c0,0,0,0,0,0c0-0.1,0-0.1,0-0.2c0-0.9,0-1.6,0.1-2c0.1-0.3,0.2-0.6,0.2-0.6
			c0.1-0.1,0.2-0.1,0.3-0.1c0.7,0,1.2,0.3,1.5,1c0.2,0.4,0.3,0.9,0.3,1.5c0,0,0,0,0,0.1c0,0.3,0.1,0.7,0.1,1
			c0.1,1.7-0.3,2.6-1.2,2.7c-0.4,0-0.7-0.2-0.9-0.5c-0.2-0.3-0.3-0.7-0.4-1C123.9,135.9,123.8,135.4,123.8,135z M124.3,133.8
			c0,0.3,0,0.6,0,0.8c0,0.9,0.1,1.6,0.3,2.3c0.2,0.4,0.3,0.6,0.5,0.6c0.1,0,0.2-0.1,0.3-0.1c0.1-0.1,0.2-0.2,0.2-0.4
			c0-0.1,0.1-0.3,0.1-0.5c0-0.2,0-0.3,0.1-0.5c0-0.3,0-0.6,0-0.8c0-0.2-0.1-0.6-0.1-1c-0.1-0.5-0.1-0.8-0.1-1c0-0.1,0-0.1,0-0.2
			c0-0.2-0.1-0.4-0.3-0.6c-0.2-0.2-0.3-0.2-0.6-0.2c-0.2,0-0.3,0.1-0.4,0.4c-0.1,0.2-0.1,0.4-0.1,0.7
			C124.3,133.4,124.3,133.6,124.3,133.8z"/>
		<path class="st0" d="M132.7,136.9c-0.1-0.4-0.1-0.8-0.2-1.1c0-0.3-0.1-0.6-0.2-1.2c-0.1-0.5-0.2-0.8-0.2-1c0-0.2,0-0.4-0.1-0.6
			c0-0.2,0-0.4-0.1-0.6c0,0.1-0.1,0.5-0.1,1.3c-0.2,2-0.5,3-0.7,3c-0.1,0-0.2,0-0.3-0.1c-0.1-0.1-0.1-0.2-0.1-0.3
			c0-0.3-0.2-0.8-0.6-1.7c-0.3-0.9-0.6-1.5-0.8-2c0.1,2.1,0.2,3.5,0.3,4.3c0,0.1,0,0.2,0,0.3c0,0.1,0,0.2,0,0.2
			c0,0.1-0.1,0.1-0.2,0.1c-0.1,0-0.2,0-0.2,0c-0.1,0-0.1-0.1-0.1-0.1c-0.1-0.6-0.1-1.5-0.1-2.8c0-1.2-0.1-2.1-0.1-2.8
			c0-0.1-0.1-0.1-0.1-0.2c0-0.1,0-0.1,0.1-0.2c0.1,0,0.1-0.1,0.2-0.1c0.1,0,0.4,0.6,1,1.7c0.5,1.2,0.9,1.9,1,2.4
			c0-0.1,0-0.3,0.1-0.7c0-0.4,0.1-0.7,0.1-1.1c0-0.4,0.1-0.8,0.2-1.2c0.1-0.9,0.3-1.4,0.5-1.4c0.1,0,0.2,0,0.2,0
			c0.1,0,0.1,0.1,0.1,0.2c0.1,0.4,0.2,1.1,0.3,1.9c0.2,0.8,0.3,1.5,0.3,1.8c0,0.3,0.1,0.6,0.1,0.9c0,0,0,0,0,0
			c0,0.1,0.1,0.3,0.2,0.6c0,0.1,0,0.1,0,0.2c0,0.1,0.1,0.1,0.1,0.2c0,0.1,0,0.2-0.1,0.2c0,0.1-0.1,0.1-0.2,0.2
			C132.9,137.5,132.8,137.3,132.7,136.9z"/>
		<path class="st0" d="M135.3,132.7c0-0.3-0.1-0.6-0.1-0.8c-0.1-0.4-0.1-0.6-0.2-0.8c0-0.2,0.1-0.3,0.2-0.4c0.1,0,0.3,0,0.4-0.1
			c0.3-0.1,0.6,0,0.8,0.3c0.2,0.2,0.3,0.5,0.4,0.8c0.1,0.4,0.1,0.7,0.1,0.8c0,0.1,0,0.2,0,0.3c0,0.1,0,0.2,0,0.2
			c0,0.1-0.1,0.1-0.1,0.2c0,0.1-0.1,0.1-0.2,0.2c-0.1,0.1-0.3,0.2-0.5,0.4c0.1,0.3,0.1,0.6,0.2,0.9c0.1,0.6,0.3,1.1,0.4,1.7
			c0,0.1,0,0.1-0.1,0.2c-0.1,0.1-0.1,0.1-0.2,0.1c-0.1,0-0.2,0-0.2-0.1c-0.1-0.3-0.3-0.7-0.4-1.3c-0.1-0.5-0.2-1.1-0.2-1.6
			c-0.1-0.1-0.1-0.1-0.1-0.2c0,0,0,0,0,0C135.4,133.3,135.4,133.1,135.3,132.7z M135.6,131.6c0.1,0.6,0.2,1.1,0.3,1.7c0,0,0,0,0,0
			c0.4-0.1,0.5-0.7,0.3-1.6c-0.1-0.3-0.1-0.5-0.2-0.5c-0.1-0.1-0.2-0.1-0.4-0.1c0,0,0,0-0.1,0C135.5,131.3,135.6,131.4,135.6,131.6z
			"/>
		<path class="st0" d="M141.9,133.3c0.1,0.2,0.2,0.3,0.2,0.5c0,0.1,0.1,0.2,0.2,0.5c0.1,0.3,0.2,0.4,0.2,0.5c0,0,0,0,0,0
			c0,0.1,0,0.2-0.1,0.3c-0.1,0-0.2,0-0.3,0c-0.1,0-0.1-0.1-0.2-0.2c-0.1-0.2-0.2-0.6-0.4-1c-0.3,0-0.6,0.1-1,0.1c0,0.2,0,0.4,0,0.7
			c0,0.2,0,0.4,0,0.5c0,0.2-0.1,0.4-0.2,0.4c-0.1,0-0.2,0-0.2,0c-0.1,0-0.1-0.1-0.1-0.1c0,0,0-0.1,0-0.1c0.1-1.6,0-3.2-0.1-4.7
			c0,0,0-0.2-0.1-0.4c-0.1-0.4-0.1-0.7,0-0.9c0.1,0,0.2-0.1,0.3-0.1c0.1,0,0.2,0,0.2,0c0.1,0,0.1,0.1,0.1,0.1
			c0.1,0.4,0.3,1.1,0.7,1.9C141.5,132.3,141.8,132.9,141.9,133.3z M141.4,133.6c0-0.1-0.1-0.2-0.1-0.4c-0.1-0.2-0.1-0.5-0.2-0.8
			c-0.1-0.3-0.2-0.7-0.4-1.1c-0.2-0.4-0.3-0.7-0.3-0.9c0.1,1.5,0.2,2.6,0.2,3.2C140.7,133.7,141,133.7,141.4,133.6z"/>
		<path class="st0" d="M144,130.8c-0.1-0.5-0.3-1.1-0.4-1.6c-0.1-0.3,0-0.5,0.1-0.7c0,0,0,0,0,0.1c0,0,0,0,0.1,0
			c0.1,0,0.4,0.1,0.7,0.5c0.4,0.4,0.7,0.8,1.1,1.3c0.4,0.5,0.7,1,1.1,1.5c0.4,0.5,0.6,0.8,0.7,0.9c-0.3-1.2-0.7-2.7-1.3-4.4
			c0-0.1-0.1-0.1-0.1-0.2c-0.1-0.2,0-0.3,0.1-0.3c0.1,0,0.2,0,0.2,0c0.1,0.1,0.1,0.1,0.1,0.2c0.1,0.2,0.1,0.4,0.2,0.6
			c0.2,0.7,0.5,1.6,0.8,2.7c0.3,1.1,0.5,1.8,0.4,2c-0.2,0.1-0.3,0.2-0.3,0.2c-0.1,0-0.1,0-0.2,0c0,0-0.1-0.1-0.1-0.2
			c-0.1-0.1-0.1-0.1-0.1-0.1c0,0,0,0,0,0c-0.1-0.2-0.5-0.8-1.3-1.8c-0.8-1-1.4-1.7-1.7-2c0.4,1.4,0.9,2.9,1.3,4.3c0,0,0,0,0.1,0
			c0.1,0,0.1,0.1,0.1,0.2c0,0.1,0,0.1,0,0.2c0,0.1-0.1,0.1-0.2,0.1c-0.2,0.1-0.4-0.1-0.5-0.4C144.6,132.8,144.3,131.8,144,130.8z"/>
		<path class="st0" d="M151.9,131.4c0.2,0.4,0.1,0.6-0.1,0.7c-0.1,0-0.2,0-0.3-0.1c0-0.2-0.1-0.6-0.5-1.5c-0.1-0.2-0.2-0.4-0.3-0.6
			c-0.1-0.3-0.2-0.5-0.3-0.6c0-0.1-0.1-0.1-0.1-0.2c0,0-0.2-0.2-0.5-0.6c-0.8-0.8-1.2-1.3-1.2-1.4c0,0,0,0,0,0
			c0-0.1,0.1-0.1,0.1-0.2c0.2-0.1,0.6,0.3,1.2,1c0.3,0.3,0.4,0.5,0.4,0.5c0-0.1,0-0.3-0.1-0.7c-0.2-1-0.2-1.5,0-1.6
			c0.1,0,0.1,0,0.2,0c0.1,0,0.1,0,0.1,0.1c0.1,0.3,0.2,0.7,0.2,1.3c0,0.6,0.1,1,0.2,1.3C151.2,129.7,151.6,130.5,151.9,131.4z"/>
	</g>
</g>
<g>
	<path class="st0" d="M27.4,75.7c-0.4,0.2-0.7,0.5-1,0.8c-0.1,0-0.2-0.1-0.2-0.2c0,0,0-0.1,0-0.1c0.3-0.2,0.5-0.4,0.8-0.6
		c0.1-0.1,0.2-0.3,0.4-0.4c0.1-0.1,0.1-0.1,0.2-0.1c0.1,0,0.1,0,0.2,0.1c-0.1,0.8,0,1.5,0,2.2c0,1,0,1.9,0,2.9c0,0.1,0,0.3,0,0.4
		l0,1.9c0,0.1-0.1,0.3-0.1,0.4c-0.1,0-0.2-0.1-0.2-0.1c0,0,0-0.1,0-0.1c0.1-0.3,0.1-0.6,0.1-1c0-0.1,0-0.2,0-0.3c0-0.5,0-1,0-1.5
		c0-0.7,0-1.3,0-2c0-0.8,0-1.6,0-2.4C27.4,75.8,27.4,75.8,27.4,75.7z"/>
	<path class="st0" d="M30.2,81.4c0.1,0.1,0,0.2,0,0.3c0,0.2,0,0.4,0,0.6c0,0.1,0,0.2,0.1,0.3c0.3,0.4,0.6,0.5,1.1,0.3
		c0.1-0.3,0.2-0.6,0.2-0.9c0-0.5,0.1-1.1,0.1-1.6c0-0.5,0-1,0-1.6c0-0.1,0-0.2,0-0.3c0,0-0.1,0-0.1,0c-0.2,0.2-0.4,0.2-0.6,0.2
		c-0.2,0-0.3,0-0.5-0.1c-0.2-0.1-0.4-0.2-0.4-0.4C30.1,78,30,77.8,30,77.6c0-0.4,0-0.8,0-1.1s0.1-0.7,0.3-1.1
		c0.1-0.2,0.3-0.3,0.5-0.3c0.1,0,0.3,0,0.5,0c0.2,0,0.3,0.1,0.4,0.2c0.1,0.1,0.1,0.2,0.2,0.4c0.2,0.8,0.2,1.7,0.2,2.5
		c0,0.5,0,1,0,1.6c0,0.6,0,1.3,0,1.9c0,0.4-0.1,0.7-0.1,1c-0.1,0.3-0.2,0.5-0.6,0.6c-0.2,0-0.3,0-0.5,0c-0.3-0.1-0.6-0.3-0.7-0.6
		c-0.2-0.4-0.2-0.7-0.1-1.1C29.9,81.4,30,81.4,30.2,81.4z M31.6,76.3c0,0,0-0.1,0-0.1l-0.1-0.5c-0.1-0.3-0.2-0.4-0.5-0.4
		c-0.2,0-0.4,0.1-0.5,0.2c-0.1,0.1-0.1,0.2-0.2,0.4c-0.1,0.3-0.1,0.7-0.1,1c0,0.1,0,0.2,0,0.3c0,0.2,0,0.3,0,0.5
		c0.1,0.5,0.1,0.6,0.6,0.6c0,0,0.1,0,0.1,0c0.4,0,0.6-0.2,0.6-0.5c0-0.3,0-0.6,0-0.9C31.7,76.7,31.6,76.5,31.6,76.3z"/>
</g>
<g>
	<path class="st0" d="M214.7,81.4c0.1,0.1,0,0.2,0,0.3c0,0.2,0,0.4,0,0.6c0,0.1,0,0.2,0.1,0.3c0.3,0.4,0.7,0.5,1.1,0.3
		c0.1-0.3,0.2-0.6,0.2-0.9c0-0.5,0.1-1.1,0.1-1.6c0-0.5,0-1,0-1.6c0-0.1,0-0.2,0-0.3c0,0-0.1,0-0.1,0c-0.2,0.2-0.4,0.2-0.6,0.2
		c-0.2,0-0.3,0-0.5-0.1c-0.2-0.1-0.4-0.2-0.4-0.4c-0.1-0.2-0.2-0.4-0.2-0.6c0-0.4,0-0.8,0-1.1s0.1-0.7,0.3-1.1
		c0.1-0.2,0.3-0.3,0.5-0.3c0.1,0,0.3,0,0.5,0c0.2,0,0.3,0.1,0.4,0.2c0.1,0.1,0.1,0.2,0.2,0.4c0.2,0.8,0.2,1.7,0.2,2.5
		c0,0.5,0,1,0,1.6c0,0.6,0,1.3,0,1.9c0,0.4-0.1,0.7-0.1,1c-0.1,0.3-0.2,0.5-0.6,0.6c-0.2,0-0.3,0-0.5,0c-0.3-0.1-0.6-0.3-0.7-0.6
		c-0.2-0.4-0.2-0.7-0.1-1.1C214.4,81.4,214.5,81.4,214.7,81.4z M216.1,76.3c0,0,0-0.1,0-0.1l-0.1-0.5c-0.1-0.3-0.2-0.4-0.5-0.4
		c-0.2,0-0.4,0.1-0.5,0.2c-0.1,0.1-0.1,0.2-0.2,0.4c-0.1,0.3-0.1,0.7-0.1,1c0,0.1,0,0.2,0,0.3c0,0.2,0,0.3,0,0.5
		c0.1,0.5,0.1,0.6,0.6,0.6c0,0,0.1,0,0.1,0c0.4,0,0.6-0.2,0.6-0.5c0-0.3,0-0.6,0-0.9C216.2,76.7,216.1,76.5,216.1,76.3z"/>
	<path class="st0" d="M218.9,81.3c0.1,0.2,0.1,0.5,0.1,0.7c0,0.2,0,0.3,0.1,0.5c0,0.1,0.1,0.2,0.2,0.2c0.3,0.1,0.5,0.1,0.8,0
		c0.3-0.2,0.4-0.4,0.4-0.7c0-0.3,0-0.7,0-1c0-0.5,0-1,0-1.6c0-0.2-0.1-0.3-0.2-0.4c0,0-0.1-0.1-0.2-0.1c-0.1,0-0.2,0-0.3,0
		c-0.1,0-0.1,0-0.2,0c-0.1,0-0.1-0.2,0-0.3c0.1,0,0.1,0,0.2-0.1c0.1,0,0.2-0.1,0.3-0.1c0.2-0.1,0.3-0.3,0.3-0.6
		c0-0.4,0.1-0.8,0.1-1.2c0-0.2,0-0.4,0-0.5c0-0.1-0.1-0.2-0.1-0.3c0-0.1-0.1-0.1-0.2-0.1c-0.4-0.1-0.7,0-1,0.3
		c-0.2,0.1-0.2,0.3-0.3,0.5c0,0.1,0,0.1,0,0.2c0,0-0.1,0.1-0.1,0.1c0,0-0.1,0-0.1,0c-0.1-0.1-0.1-0.2-0.1-0.3
		c0.1-0.4,0.3-0.6,0.6-0.8c0.2-0.1,0.3-0.2,0.5-0.2c0.1,0,0.2,0,0.3,0c0.6,0,0.7,0.1,0.8,0.7c0.1,0.3,0.1,0.6,0,0.9
		c0,0.4-0.1,0.8-0.1,1.1c0,0.2-0.1,0.4-0.3,0.5c0,0,0,0,0,0.1l0.1,0.1c0.2,0.2,0.3,0.4,0.3,0.7c0,0.1,0,0.3,0,0.4c0,0.1,0,0.2,0,0.3
		c0.1,0.4,0,0.9,0,1.3c0,0.2,0,0.3,0,0.5c0,0.5-0.2,0.8-0.5,1.1c-0.1,0-0.1,0.1-0.2,0.1c-0.2,0-0.3,0.1-0.5,0.1
		c-0.2,0-0.4,0-0.5-0.1c-0.2-0.1-0.3-0.2-0.3-0.4c-0.1-0.2-0.1-0.3-0.1-0.5c0-0.2,0-0.4-0.1-0.6C218.6,81.3,218.6,81.2,218.9,81.3z"
		/>
</g>
<g>
	<path class="st0" d="M77.8,34.9l0-0.3v0c0-0.1,0-0.2,0-0.2s0.1-0.1,0.2-0.1s0.2,0,0.3,0.1s0.2,0.1,0.2,0.2c0.1,0.2,0.2,0.4,0.2,0.7
		s0,0.4-0.1,0.6s-0.1,0.3-0.2,0.4c0.2,0.2,0.2,0.4,0.3,0.7c0,0.1,0,0.2,0,0.3s0,0.2,0,0.3s-0.1,0.2-0.1,0.3c0,0.1-0.1,0.2-0.2,0.2
		c-0.1,0.2-0.3,0.2-0.6,0.2c-0.1,0-0.1,0-0.2-0.1c0-0.1,0-0.1,0-0.2l0.1-1.3L77.8,34.9z M78.1,37.8L78.1,37.8l0,0.3
		c0.1,0,0.2-0.1,0.3-0.2s0.1-0.2,0.1-0.4s0-0.2,0-0.3s0-0.1,0-0.2s0-0.2-0.1-0.2c-0.1-0.2-0.1-0.3-0.3-0.3c0,0.3,0,0.6,0,0.9
		L78.1,37.8z M78.1,35.2v0.9c0.2,0,0.3-0.3,0.3-0.8s-0.1-0.8-0.2-0.8C78.2,34.7,78.1,34.9,78.1,35.2z"/>
	<path class="st0" d="M80.3,36.5l0-0.2c0,0,0,0,0,0v-0.1c0-0.6,0-1.1,0.1-1.3c0.1-0.2,0.1-0.4,0.2-0.4s0.1-0.1,0.2-0.1
		c0.5,0,0.8,0.2,1,0.7c0.1,0.3,0.2,0.6,0.2,1v0l0,0.7c0,1.2-0.3,1.7-0.8,1.7c-0.2,0-0.4-0.1-0.5-0.4c-0.1-0.2-0.2-0.5-0.2-0.7
		C80.4,37.1,80.3,36.8,80.3,36.5z M80.7,35.7l0,0.6c0,0.6,0,1.1,0.1,1.5c0.1,0.3,0.2,0.4,0.3,0.4c0.1,0,0.1,0,0.2-0.1
		s0.1-0.1,0.1-0.2s0.1-0.2,0.1-0.3c0-0.1,0-0.2,0-0.3c0-0.2,0-0.4,0-0.5s0-0.4,0-0.7s0-0.5,0-0.7v-0.1c0-0.1-0.1-0.3-0.1-0.4
		s-0.2-0.2-0.4-0.2c-0.1,0-0.2,0.1-0.3,0.2c0,0.1-0.1,0.3-0.1,0.5L80.7,35.7z"/>
	<path class="st0" d="M84.2,38.3l-0.4,0c0,0-0.1,0-0.1,0s-0.1,0-0.1,0s-0.1,0-0.1,0s0-0.1,0-0.1c0-0.4,0.1-1,0.4-1.9
		s0.4-1.4,0.5-1.6l-0.5,0c0,0-0.1,0-0.1-0.1s0-0.1,0-0.1c0-0.1,0.2-0.2,0.7-0.2c0.2,0,0.3,0.1,0.3,0.2c0,0.1,0,0.3-0.1,0.6
		s-0.1,0.4-0.2,0.5C84.3,36,84.2,36.4,84,37s-0.2,1-0.3,1h0.1l0.3,0v0c0.2,0,0.2,0,0.2,0.1c0,0,0,0.1-0.1,0.1S84.2,38.3,84.2,38.3z"
		/>
	<path class="st0" d="M86.2,35.3l0-0.5c0-0.3,0.1-0.4,0.3-0.4c0.1,0,0.3,0,0.4,0.1s0.3,0.1,0.3,0.2c0,0.1-0.1,0.1-0.2,0.2
		c-0.2-0.1-0.3-0.1-0.5-0.1c0,0.1,0,0.2,0,0.3l0,0.9c0,0,0,0,0,0.1l0.2,0c0.2,0,0.3,0.1,0.3,0.2c0,0,0,0.1-0.1,0.1s-0.1,0-0.1,0
		s-0.1,0-0.2,0h-0.2c0,0.2,0,0.3,0,0.5l0,1.1c0,0.2,0,0.3,0,0.3l0.4,0c0.2,0,0.2,0,0.2,0.1c0,0.1,0,0.1-0.1,0.1s-0.1,0-0.2,0h-0.5
		c-0.1,0-0.1,0-0.1-0.1s-0.1-0.1-0.1-0.1v-0.2l0-1L86.2,35.3z"/>
	<path class="st0" d="M90.9,38.3l0-0.8c0-0.2,0-0.4,0-0.8s0-0.6,0-0.7s0-0.3,0-0.4s0-0.3,0-0.4c0,0.1-0.1,0.3-0.2,0.8
		C90.3,37.4,90.1,38,90,38c-0.1,0-0.1,0-0.2-0.1s-0.1-0.1-0.1-0.2c0-0.2-0.1-0.6-0.2-1.2s-0.3-1-0.4-1.4c-0.1,1.4-0.1,2.4-0.1,2.9
		l0,0.2c0,0.1,0,0.1,0,0.1s-0.1,0.1-0.1,0.1s-0.1,0-0.1,0s-0.1-0.1-0.1-0.1c0-0.4,0-1,0.1-1.8s0.1-1.4,0.1-1.8c0,0,0-0.1,0-0.1
		s0-0.1,0.1-0.1s0.1,0,0.2,0c0.1,0,0.3,0.4,0.5,1.2S90,37,90,37.3c0-0.1,0.1-0.2,0.1-0.4s0.1-0.5,0.2-0.7c0.1-0.3,0.1-0.5,0.2-0.8
		c0.2-0.6,0.3-0.9,0.4-0.9c0.1,0,0.1,0,0.1,0s0.1,0.1,0.1,0.1c0,0.3,0,0.7,0,1.3s0,1,0,1.3l0,0.6v0c0,0,0,0.2,0,0.4l0,0.1
		c0,0,0,0.1,0,0.1s0,0.1-0.1,0.2s-0.1,0.1-0.1,0.1C91,38.7,90.9,38.6,90.9,38.3z"/>
	<path class="st0" d="M94.2,37.2l0.1,0.4c0,0,0,0.2,0.1,0.4s0.1,0.3,0.1,0.4v0c0,0.1,0,0.1-0.1,0.2c-0.1,0-0.1,0-0.2,0
		S94,38.3,94,38.2c0-0.2,0-0.4-0.1-0.7l-0.6-0.1c0,0.1-0.1,0.3-0.1,0.4s0,0.3-0.1,0.3c0,0.1-0.1,0.2-0.2,0.2c0,0-0.1,0-0.1,0
		s-0.1-0.1-0.1-0.1l0-0.1c0.3-1,0.5-2.1,0.6-3c0,0,0-0.1,0-0.2c0-0.3,0.1-0.5,0.1-0.6h0.2c0.1,0,0.1,0,0.1,0s0.1,0.1,0.1,0.1
		c0,0.3,0,0.8,0.1,1.4S94.2,36.9,94.2,37.2z M93.9,37.3c0-0.1,0-0.2,0-0.3s0-0.3,0-0.5s0-0.5-0.1-0.8s-0.1-0.5-0.1-0.6
		c-0.2,1-0.3,1.7-0.4,2.1C93.4,37.2,93.6,37.3,93.9,37.3z"/>
	<path class="st0" d="M95.9,35.9l0-1.1c0-0.2,0.1-0.3,0.2-0.4v0c0,0,0,0,0,0c0.1,0,0.2,0.2,0.4,0.5s0.3,0.7,0.4,1.1s0.2,0.8,0.3,1.2
		s0.2,0.6,0.2,0.7c0.1-0.8,0.1-1.9,0.1-3l0-0.2c0-0.1,0-0.2,0.1-0.2c0.1,0,0.1,0,0.1,0.1s0,0.1,0,0.2v0.5c0,0.5,0,1.1-0.1,1.9
		s-0.1,1.2-0.2,1.3c-0.1,0-0.2,0-0.2,0s-0.1,0-0.1,0s0-0.1-0.1-0.1s0-0.1,0-0.1l0,0c0-0.1-0.1-0.6-0.4-1.4s-0.5-1.3-0.6-1.6v3
		c0,0,0,0,0,0c0,0,0,0.1,0,0.1s0,0.1-0.1,0.1s-0.1,0.1-0.1,0.1c-0.1,0-0.2-0.1-0.2-0.4L95.9,35.9z"/>
</g>
<g>
	<path class="st0" d="M146.5,38.3l0-0.8c0-0.2,0-0.4,0-0.8s0-0.6,0-0.7s0-0.3,0-0.4s0-0.3,0-0.4c0,0.1-0.1,0.3-0.2,0.8
		c-0.3,1.3-0.5,1.9-0.7,1.9c-0.1,0-0.1,0-0.2-0.1s-0.1-0.1-0.1-0.2c0-0.2-0.1-0.6-0.2-1.2s-0.3-1-0.4-1.4c-0.1,1.4-0.1,2.4-0.1,2.9
		l0,0.2c0,0.1,0,0.1,0,0.1s-0.1,0.1-0.1,0.1s-0.1,0-0.1,0s-0.1-0.1-0.1-0.1c0-0.4,0-1,0.1-1.8s0.1-1.4,0.1-1.8c0,0,0-0.1,0-0.1
		s0-0.1,0.1-0.1s0.1,0,0.2,0c0.1,0,0.3,0.4,0.5,1.2s0.4,1.4,0.5,1.7c0-0.1,0.1-0.2,0.1-0.4s0.1-0.5,0.2-0.7c0.1-0.3,0.1-0.5,0.2-0.8
		c0.2-0.6,0.3-0.9,0.4-0.9c0.1,0,0.1,0,0.2,0s0.1,0.1,0.1,0.1c0,0.3,0,0.7,0,1.3s0,1,0,1.3l0,0.6v0c0,0,0,0.2,0,0.4l0,0.1
		c0,0,0,0.1,0,0.1s0,0.1-0.1,0.2s-0.1,0.1-0.1,0.1C146.6,38.7,146.5,38.6,146.5,38.3z"/>
	<path class="st0" d="M148.4,36.5l0-0.2c0,0,0,0,0,0v-0.1c0-0.6,0-1.1,0.1-1.3c0.1-0.2,0.1-0.4,0.2-0.4s0.1-0.1,0.2-0.1
		c0.5,0,0.8,0.2,1,0.7c0.1,0.3,0.2,0.6,0.2,1v0l0,0.7c0,1.2-0.3,1.7-0.8,1.7c-0.2,0-0.4-0.1-0.5-0.4c-0.1-0.2-0.2-0.5-0.2-0.7
		C148.4,37.1,148.4,36.8,148.4,36.5z M148.8,35.7l0,0.6c0,0.6,0,1.1,0.1,1.5c0.1,0.3,0.2,0.4,0.3,0.4c0.1,0,0.1,0,0.2-0.1
		s0.1-0.1,0.1-0.2s0.1-0.2,0.1-0.3c0-0.1,0-0.2,0-0.3c0-0.2,0-0.4,0-0.5s0-0.4,0-0.7s0-0.5,0-0.7v-0.1c0-0.1-0.1-0.3-0.1-0.4
		s-0.2-0.2-0.4-0.2c-0.1,0-0.2,0.1-0.3,0.2c0,0.1-0.1,0.3-0.1,0.5L148.8,35.7z"/>
	<path class="st0" d="M151.6,35.9l0-1.1c0-0.2,0.1-0.3,0.2-0.4v0c0,0,0,0,0,0c0.1,0,0.2,0.2,0.4,0.5s0.3,0.7,0.4,1.1
		s0.2,0.8,0.3,1.2c0.1,0.4,0.2,0.6,0.2,0.7c0.1-0.8,0.1-1.9,0.1-3l0-0.2c0-0.1,0-0.2,0.1-0.2c0.1,0,0.1,0,0.1,0.1c0,0,0,0.1,0,0.2
		v0.5c0,0.5,0,1.1-0.1,1.9c0,0.8-0.1,1.2-0.2,1.3c-0.1,0-0.2,0-0.2,0c0,0-0.1,0-0.1,0c0,0,0-0.1-0.1-0.1s0-0.1,0-0.1l0,0
		c0-0.1-0.1-0.6-0.4-1.4s-0.5-1.3-0.6-1.6v3c0,0,0,0,0,0c0,0,0,0.1,0,0.1s0,0.1-0.1,0.1c0,0-0.1,0.1-0.1,0.1c-0.1,0-0.2-0.1-0.2-0.4
		L151.6,35.9z"/>
	<path class="st0" d="M155.8,38.3l0-0.5c0,0,0-0.1,0-0.2c0-0.1,0-0.5-0.1-1.4c0-0.9-0.1-1.4-0.1-1.6c0,0,0,0,0,0
		c-0.3,0-0.5-0.1-0.5-0.2c0,0,0-0.1,0.1-0.1s0.1,0,0.1,0l0.8,0.1l0.1,0c0.1,0,0.2,0,0.2,0.1c0,0,0,0.1-0.1,0.1s-0.1,0-0.1,0l-0.3,0
		l0,0.1c0,0.4,0,0.9,0.1,1.7s0.1,1.3,0.1,1.7c0,0,0,0.1-0.1,0.1s-0.1,0.1-0.1,0.1L155.8,38.3z"/>
	<path class="st0" d="M159.2,37.2l0.1,0.4c0,0,0,0.2,0.1,0.4s0.1,0.3,0.1,0.4v0c0,0.1,0,0.1-0.1,0.2c-0.1,0-0.1,0-0.2,0
		s-0.1-0.1-0.1-0.2c0-0.2,0-0.4-0.1-0.7l-0.6-0.1c0,0.1-0.1,0.3-0.1,0.4s0,0.3-0.1,0.3c0,0.1-0.1,0.2-0.2,0.2c0,0-0.1,0-0.1,0
		s-0.1-0.1-0.1-0.1l0-0.1c0.3-1,0.5-2.1,0.6-3c0,0,0-0.1,0-0.2c0-0.3,0.1-0.5,0.1-0.6h0.2c0.1,0,0.1,0,0.1,0s0.1,0.1,0.1,0.1
		c0,0.3,0,0.8,0.1,1.4S159.2,36.9,159.2,37.2z M158.8,37.3c0-0.1,0-0.2,0-0.3s0-0.3,0-0.5s0-0.5-0.1-0.8s-0.1-0.5-0.1-0.6
		c-0.2,1-0.3,1.7-0.4,2.1C158.4,37.2,158.6,37.3,158.8,37.3z"/>
	<path class="st0" d="M160.8,35.9l0-1.1c0-0.2,0.1-0.3,0.2-0.4v0c0,0,0,0,0,0c0.1,0,0.2,0.2,0.4,0.5s0.3,0.7,0.4,1.1
		s0.2,0.8,0.3,1.2s0.2,0.6,0.2,0.7c0.1-0.8,0.1-1.9,0.1-3l0-0.2c0-0.1,0.1-0.2,0.2-0.2c0.1,0,0.1,0,0.1,0.1s0,0.1,0,0.2v0.5
		c0,0.5,0,1.1-0.1,1.9s-0.1,1.2-0.2,1.3c-0.1,0-0.2,0-0.2,0s-0.1,0-0.1,0s0-0.1-0.1-0.1s0-0.1,0-0.1l0,0c0-0.1-0.1-0.6-0.4-1.4
		s-0.5-1.3-0.6-1.6v3c0,0,0,0,0,0c0,0,0,0.1,0,0.1s0,0.1-0.1,0.1s-0.1,0.1-0.1,0.1c-0.1,0-0.2-0.1-0.2-0.4L160.8,35.9z"/>
	<path class="st0" d="M165.8,37.2l0.1,0.4c0,0,0,0.2,0.1,0.4s0.1,0.3,0.1,0.4v0c0,0.1,0,0.1-0.1,0.2c-0.1,0-0.1,0-0.2,0
		s-0.1-0.1-0.1-0.2c0-0.2,0-0.4-0.1-0.7l-0.6-0.1c0,0.1-0.1,0.3-0.1,0.4s0,0.3-0.1,0.3c0,0.1-0.1,0.2-0.2,0.2c0,0-0.1,0-0.1,0
		s-0.1-0.1-0.1-0.1l0-0.1c0.3-1,0.5-2.1,0.6-3c0,0,0-0.1,0-0.2c0-0.3,0.1-0.5,0.1-0.6h0.2c0.1,0,0.1,0,0.1,0s0.1,0.1,0.1,0.1
		c0,0.3,0,0.8,0.1,1.4S165.8,36.9,165.8,37.2z M165.5,37.3c0-0.1,0-0.2,0-0.3s0-0.3,0-0.5s0-0.5-0.1-0.8s-0.1-0.5-0.1-0.6
		c-0.2,1-0.3,1.7-0.4,2.1C165,37.2,165.2,37.3,165.5,37.3z"/>
</g>
<polygon class="st0" points="113,115.6 115.9,115.6 118.8,115.8 121.6,115.7 124.5,115.7 127.3,115.5 130.2,115.7 133.1,115.7 
	133.1,116.2 130.2,116.3 127.3,116 124.5,116.3 121.6,116.2 118.8,116.3 115.9,116.1 113,116.1 "/>
<g>
	<path class="st1" d="M124.6,41.5c-3.1,0.1-6.1,0.1-9.2,0.2c-0.1,0-0.2,0-0.3,0c-0.1,0-0.3,0-0.3-0.2c0-0.2,0.1-0.3,0.2-0.3
		c0.3-0.1,0.6-0.1,0.9-0.1c2.8-0.3,5.6-0.2,8.3-0.2c2.2,0,4.5,0,6.7-0.2c0.6,0,1.1-0.1,1.7-0.2c1.1-0.1,1.7-1,1.6-2.2
		c-0.1-0.9-0.4-1.7-0.7-2.5c-0.7-1.6-1.8-3-3.1-4.1c-1.7-1.3-3.4-1.5-5.4-0.7c-1.2,0.5-2.2,1.3-3.1,2.2c-1.3,1.3-2.4,2.6-3.6,3.9
		c-0.9,1-1.9,2-2.9,2.9c-0.9,0.7-1.9,1.4-3.1,1.6c-0.4,0.1-0.8,0.1-1.3,0c-1.1-0.2-1.7-1-1.7-2.3c0-1.1,0.3-2.1,0.8-3.1
		c1.1-2.1,2.9-3.5,5-4.4c1.4-0.6,3-0.9,4.5-1.2c0.1,0,0.1,0,0.2,0c0.2,0,0.4,0,0.4,0.2c0.1,0.2-0.1,0.3-0.3,0.4
		c-0.6,0.4-1.3,0.5-2,0.6c-2.8,0.7-4.8,2.2-5.8,5c-0.2,0.7-0.4,1.4-0.2,2.1c0.1,0.3,0.2,0.6,0.5,0.9c0.5,0.5,0.9,0.5,1.4,0
		c1-0.9,1.9-1.9,2.7-3c1.1-1.3,2.2-2.7,3.4-3.9c1.4-1.4,3-2.5,5-3c5.6-1.4,11.2,2.4,11.8,8.2c0,0.4,0.1,0.7,0,1.1
		c-0.2,1.1-0.9,1.7-2.1,1.9c-0.6,0.1-1.2,0.1-1.8,0.1C130.1,41.4,127.4,41.4,124.6,41.5C124.6,41.5,124.6,41.5,124.6,41.5z"/>
	<g>
		<g>
			<g>
				<g>
					<path class="st2" d="M124.3,41.6c0.5,0-0.3-0.1,0.3,0C124.6,41.6,124.5,41.7,124.3,41.6z"/>
					<path class="st2" d="M126.4,41.5c1.7-0.2,3.9-0.1,5.7-0.2c0.2,0-0.1,0.1,0.4,0.1c0.5,0,1-0.1,1.5-0.2c0.5,0,1.1-0.1,1.7-0.4
						c0.5-0.3,0.9-0.8,1.1-1.4c0.2-0.6,0.1-1.2,0-1.7l0.1,0.1c0-0.2-0.1-0.4-0.1-0.7c-0.1-0.2-0.2-0.4-0.2-0.7c0,0,0.1,0.1,0.1,0
						c0,0-0.1-0.2-0.2-0.4c-0.1-0.2-0.2-0.4-0.2-0.5c0-0.2,0-0.2-0.1-0.4c0,0-0.2-0.2-0.2-0.2c-0.5-0.5-0.8-1.5-1.5-2.1
						c0,0,0.1,0.1,0.1,0c-1.1-1.1-2.7-2.2-4.3-2.7c0.1,0,0.1,0,0.1-0.1c-0.1,0-0.6-0.1-1.1-0.2c-0.2-0.1-0.8-0.1-1.3-0.1l0,0
						c-0.4,0.1-0.6-0.1-0.9,0l-0.3,0c-0.2,0.1-0.6,0-0.9,0.1l0,0c-0.3,0.1-0.5,0.1-0.7,0.1l0,0c-0.6,0.2-1,0.3-1,0.3
						c-0.2,0,0.6-0.2,0.2-0.2c-2.1,0.8-3.9,2.3-5.4,3.9c-0.2,0.2-0.3,0.3-0.4,0.3c-0.1,0.2-0.5,0.6-0.6,0.8c0-0.1-0.1,0.1-0.2,0.2
						c-0.3,0.3-0.2,0.4-0.5,0.7c0.1-0.2,0.1-0.2,0.1-0.2c-0.2,0.3-0.5,0.7-0.8,1.1c0-0.1,0.1-0.2,0.1-0.2c-0.3,0.4-0.6,0.7-0.8,1
						l0.1-0.2c-0.5,0.5-0.1,0.2-0.5,0.6c0.1-0.1,0-0.1,0-0.1c-0.3,0.5-0.9,1.1-1.3,1.5c0,0,0,0,0,0c-0.2,0.2-0.4,0.5-0.8,0.5
						c-0.4,0.1-0.7-0.1-0.9-0.4c-0.1-0.2,0.1,0-0.2-0.5c0,0-0.2-0.2-0.2-0.4c-0.1-0.2-0.1-0.4-0.1-0.2c-0.1-0.6,0.1-1.5,0.2-1.8
						c0,0.2,0.2-0.2,0.1,0.2l0.2-0.3c0,0.1-0.1,0.3-0.1,0.2c0.1-0.2,0.3-0.8,0.4-1c0.1-0.4,0.2-0.8,0.6-1.4
						c-0.2,0.3,0.2-0.1,0.1,0.1c0,0,0.1-0.2,0.2-0.4c0.1-0.2,0.3-0.4,0.3-0.4c0.2-0.2,0.1,0,0.3-0.2c0,0,0.1-0.1,0.1-0.2
						c0.1-0.1,0.8-0.6,0.9-0.6c0.1,0-0.3,0.2-0.1,0.1c0.4-0.2,0.4-0.3,0.7-0.5l0,0c0.2-0.1,0.7-0.4,0.4-0.3c-0.2,0.1,0.1,0-0.2,0.1
						c0.2-0.1,0.6-0.3,1-0.5c-0.1,0.1-0.1,0.1-0.2,0.1c0.5-0.3,1.1-0.4,1.7-0.6c0,0-0.2,0.1-0.3,0.1c0.4-0.1,0.8-0.2,1.1-0.3
						c0.2-0.1,0.3-0.2,0.5-0.3c0.1,0,0.1-0.1,0.1-0.1c0,0,0,0,0,0c0,0-0.1,0,0,0c0,0-0.1,0-0.1-0.1c-0.1,0-0.1,0-0.2,0
						c0,0-0.3,0.1-0.6,0.1c-0.1,0-0.1,0,0.2,0c-0.4,0.1-1.8,0.4-2.6,0.6c0,0-0.5,0.2-0.6,0.3l0.1-0.1c-0.2,0-0.6,0.2-0.6,0.2
						c-0.4,0.2,1.5-0.6,1-0.3c-0.2,0-0.7,0.3-0.6,0.2c-0.4,0.1-0.7,0.3-1,0.4c0.1,0,0.3-0.2,0-0.1c-0.5,0.2-0.1,0.1-0.5,0.3
						l-0.2,0.2c0,0.1-0.4,0.2-0.2,0.2c-0.1,0-0.6,0.4-0.6,0.3l0-0.1c-0.2,0.1-0.3,0.3-0.4,0.4c0,0-0.1,0-0.1,0
						c0,0.1-0.4,0.3-0.6,0.6c-0.4,0.3-0.8,0.9-1,1c-0.2,0.3-0.4,0.6-0.6,1c0-0.1,0.1-0.2,0.1-0.2c-0.2,0.2-0.2,0.3-0.3,0.5
						c0-0.1-0.3,0.4-0.4,0.7c-0.1,0.4,0,0.3,0,0.3c-0.2,0.3-0.2,1-0.3,1.4c0-0.1,0-0.5-0.1-0.2c-0.1,0.3,0,0.7,0,1.2l0.1-0.1
						c0,0.2,0.2,0.7,0.1,0.7c0.1,0.1,0.3,0.5,0.3,0.4c0.2,0.3,0.7,0.6,1.1,0.6c0.5,0.1,0.9,0,1.2,0c0.1,0,0.4-0.1,0.4-0.1
						c-0.2,0-0.3,0.1-0.4,0.1c0.1,0,0.1-0.1,0.1-0.1c0.3,0,0.5-0.1,0.2,0c0.6-0.2,0.5-0.3,1.2-0.7c0,0,0,0,0.2-0.1l0.3-0.3
						c0.4-0.3,0.3-0.1,0.3-0.1c0.2-0.2,0.5-0.4,0.5-0.5l0.3-0.2c-0.2,0.1,0.1-0.2,0.2-0.3l-0.1,0.1c0.1,0,0.3-0.2,0.4-0.4
						c-0.1,0-0.3,0.2-0.4,0.3c0.1-0.1,0.3-0.3,0.4-0.4c0,0.1,0.4-0.3,0.5-0.4c0.2-0.2,0.2-0.2,0.2-0.3c0,0,0.3-0.3,0.2-0.1
						c-0.1,0.1-0.2,0.1-0.2,0.2c0.1-0.1,0.2-0.1,0.4-0.3c0.2-0.2-0.1,0,0.2-0.4c-0.1,0.1-0.1,0.1-0.1,0.2l0.3-0.3l0-0.1
						c0.1,0,0,0,0.1,0c0.1-0.1,0.5-0.5,0.5-0.7c0.2-0.2,0.4-0.3,0.5-0.5l0,0c0.2-0.2,0.4-0.5,0.6-0.7l0,0c0.1-0.1,0.3-0.4,0.4-0.5
						c0.3-0.3,0.2,0,0.5-0.3c0.3-0.3,0.3-0.5,0.2-0.4c0.5-0.5,1-1.1,1.5-1.5c0.1-0.1,0-0.1,0.1-0.2c0.8-0.7,1.7-1.5,2.5-1.7
						c-0.3,0.1,0,0.1,0,0.1c0.2-0.1,0.3-0.1,0.4-0.2c0,0,0-0.1-0.3,0c0.6-0.3,1.5-0.5,1.9-0.5c-0.2,0,0,0,0.1-0.1c0,0.1,0.4,0,0.8,0
						l0.1,0l0.2,0.1c0.1,0,0.2-0.1,0.5,0c0,0,0,0,0.1,0.1c0.4,0,0.9,0.2,1.3,0.4l0.3,0.2c0.2,0.1,0.4,0.2,0.2,0
						c0.6,0.4,0.9,0.7,1,0.9c1,0.6,2.1,2,2.6,3.2l-0.1,0c0.1,0.3,0.1,0.1,0.2,0.4c-0.1-0.1,0,0.3-0.1,0c0.2,0.5,0.3,0.6,0.4,0.9
						c0.1,0-0.1-0.2,0-0.2c0,0,0.2,0.7,0.3,0.8c0,0.1-0.1,0-0.1,0l0.1,0.3c0,0.4-0.4-0.8-0.4-0.4l0.1,0.3c0,0.3-0.3-0.7-0.1,0
						c0.1,0.3,0.3,0.5,0.2,0.2c0.1,0.6,0.2,0.3,0.3,1c0,0.2-0.1-0.6-0.1-0.4c0,0.3,0.1,0.7,0,1c0.1-0.4,0.1,0,0.1,0.2
						c-0.1,0.4,0-0.3-0.2,0.3c0,0.1-0.2,0.6,0,0.2c0,0.3-0.4,0.5-0.6,0.8c-0.2,0.1,0.4-0.5-0.1-0.1c0.1,0-0.1,0.1-0.2,0.2
						c-0.1,0.1-0.3,0.2-0.1,0.2c-0.3,0.1-0.3,0-0.1-0.1c-0.2,0.1-0.4,0.1-0.6,0.2c-0.2,0-0.3,0.1-0.4,0l-0.1,0.1c-0.1,0-0.2,0-0.4,0
						c-0.3,0-0.9,0.2-0.8,0.1c-0.1,0-0.7,0.1-0.5,0.1c0.4,0,0.4-0.1,0.7,0c-0.3,0-0.6,0.1-0.8,0.1l0,0c-0.1,0-0.4,0-0.5,0.1
						c0.1,0,0-0.1-0.1-0.1l-0.1,0.1c-0.5,0.1-0.1-0.1-0.7-0.1l0.4-0.1c-0.1,0-0.3,0-0.5,0c-0.1,0.1-0.3,0.1-0.4,0.2
						c-0.3,0-0.1-0.1-0.4,0l0.4-0.1c0.1,0-0.3-0.1-0.7-0.1c-0.3,0-0.6,0.1-0.2,0.1c-0.2,0-0.5,0-0.3-0.1c-0.4,0,0.1,0.1-0.3,0.1
						c-0.2,0-0.6-0.1-0.9-0.1l0.4-0.1l-0.3,0c0.3-0.1-0.2-0.1,0-0.1c-0.2,0-0.4,0-0.6,0c0.5,0.1-0.6,0.2-0.4,0.3
						c-0.7,0-0.5-0.3-1.2-0.1c0.1,0-0.2,0.1,0.2,0.1c-0.5,0-0.3,0.1-0.8,0.1c0.4,0-0.4-0.1,0.1-0.2c0,0,0.3,0,0.4,0
						c-0.2,0,0-0.1-0.4-0.1c-0.3,0-0.7,0-0.6,0.1c0,0.1,0.4,0,0.3,0.1c-0.6,0-0.7-0.1-0.9,0c0.4,0,0.4,0.1,0.4,0.1l-0.4,0l0.1,0
						c-0.7,0-0.2,0.1-0.8,0.1l-0.3-0.1c0.2-0.1,0.9,0,0.8-0.1c-0.4,0-0.6,0.1-0.9,0c0.1,0,0.2,0,0.3,0c-0.1,0-0.3-0.2-0.9-0.1
						c-0.3,0-0.1,0-0.1,0.1c-0.7,0-0.9,0.1-1.3,0.1c0.1-0.1-0.8,0-0.3-0.1c0.2,0,1.2,0,1.4-0.1c-0.2-0.1,0.5,0,0.7-0.1
						c-0.5,0-0.5-0.1-0.6-0.2c-0.1,0-0.3,0-0.4,0c-0.1,0.1,0.1,0.1,0.1,0.1c-0.6,0-1.2,0-1.5,0.1c-0.2,0-0.1-0.1,0.1-0.1
						c-0.7,0-1.5,0.1-2.1,0.1c0.4,0.1-0.7,0.1-0.4,0.1c0.4,0,0.7,0,0.5,0.1c-0.2,0,0,0-0.1-0.1c-0.3,0.1-0.5,0-0.7,0.1
						c0.7-0.1,0.1-0.1,0.2-0.2c-0.5,0.1,0-0.1-0.4,0c-0.1,0-0.2,0.1-0.3,0.1c-0.1,0-0.1,0.1-0.1,0.1c0,0.1,0,0,0.1,0
						c0.1,0,0.3,0,0.4,0c0.7,0.1,1.7,0,2.2-0.1c0.3,0,0.1,0.1,0.4,0.1c0.4,0-0.3-0.1,0.3-0.1l-0.1,0c0.2,0,1.1,0,1.2-0.1l-0.2,0.1
						c0.1,0,0.2,0,0.3,0c0,0,0.1,0.1,0,0.1c0.4,0.1,0.7,0,1.1,0l-0.3-0.1c0.7-0.1,1.1,0,1.7,0l0,0.1l0.4,0c-0.1,0.1,0.3,0.1,0.5,0
						l-1,0.2c-0.3,0,0.3-0.1,0.1-0.1c-0.1,0-0.7,0-0.8,0c0.2,0,0.2,0,0.4,0c0.1,0.1-0.3,0.1-0.4,0.1c0.1,0,0.3,0,0.3,0
						c-0.2,0-0.5,0.1-0.9,0.1c0.3,0-0.1,0,0-0.1c0,0.1-0.4,0.1-0.9,0.1c-0.3-0.1-0.9,0.1-1.5,0.1c0.2-0.1,0.5-0.1,0.9-0.2
						c-0.4,0-0.4,0-0.7,0c-0.2,0.1-0.3,0.1-0.7,0.2l0-0.1c-0.4,0-0.4,0.1-0.9,0.1c-0.5,0-0.9,0-1.3,0c-0.2,0-0.4,0-0.7,0
						c-0.4-0.2-0.2-0.6,0-0.7l0.1,0c0.2-0.2,0.5-0.2,0.9-0.2c0.3,0,0.7-0.1,0.9-0.1c0.9,0,1.9-0.2,2.4-0.1c1.6-0.1,2.9-0.1,4.5-0.1
						l-0.3,0.1c0.3-0.1,0.2,0,0.5,0c-0.3-0.1,0.4-0.1,0.6-0.1c0.7,0.1,1.6,0,2.3-0.1l0,0.1c0.6-0.1,1.4,0,2.2,0c0.1,0,0.2,0.1,0.5,0
						c0.4-0.1,0.7-0.1,1.3-0.2c0.5,0,1.2-0.1,1.7-0.1c0.9-0.1,1.5-0.6,1.6-1.4c0.1-0.8-0.2-1.7-0.5-2.5l0-0.1
						c-0.7-1.6-1.9-3.3-3.1-4.2l0.2,0c-0.3-0.3-0.8-0.6-0.8-0.5c-0.4-0.3-1-0.5-1.2-0.6c-0.4-0.1-0.5-0.1-0.9-0.1
						c-0.9-0.1-1.2,0-2,0.3l0.2-0.1c0.1,0,0.1-0.1-0.1,0c-0.3,0.1-1.1,0.4-0.8,0.4c-0.9,0.3-1.8,1.2-2.5,1.8c0.1,0-0.1,0.1-0.1,0.2
						c-0.6,0.6-1.2,1.2-1.6,1.8c-0.1,0.1,0.1-0.2-0.1,0.1c-0.1,0.2,0,0-0.1,0.2c-0.9,1.1-1.9,2-2.8,3c-0.8,0.8-1.6,1.7-2.6,2.3
						c-1,0.7-2.1,1.2-3.3,1.2l0,0c-0.4,0.1-0.9,0-1.3-0.3c-0.4-0.2-0.8-0.5-1-0.8c-0.1-0.2-0.3-0.7-0.2-0.6
						c-0.3-0.6-0.2-1.8-0.1-2.6c0,0.1,0,0.1,0,0.2c0.2-0.9,0.5-1.6,0.9-2.4c0,0.1-0.1,0.2-0.1,0.3c0.2-0.3,0.3-0.8,0.5-0.9
						c0.1-0.2,0-0.2,0,0c1.2-1.6,2.9-3,4.8-3.7c1.4-0.4,0.1,0.1,1.2-0.3c0.1,0,0.1-0.1,0.1,0c0.4-0.2,0.7-0.1,1-0.2
						c-0.1,0,0.2-0.1,0.2-0.1c0.9-0.1,1.1-0.1,1.7-0.3l0,0c0.1,0,0.2-0.1,0.4-0.1c0.2,0,0.2,0,0.4,0c0.2,0,0.4,0.3,0.4,0.5
						c0,0.3-0.2,0.5-0.3,0.5c-0.4,0.3-0.8,0.4-1.1,0.6c-1.1,0.2-2.1,0.5-3.1,1c-0.9,0.5-1.7,1.1-2.3,1.9c-0.6,0.8-1.1,1.8-1.3,2.7
						c-0.1,0.5-0.1,0.9,0.1,1.3c0.1,0.2,0.2,0.4,0.3,0.5c0.2,0.2,0.3,0.2,0.3,0.2c0.1,0,0.6-0.5,0.9-0.8c0.4-0.4,0.7-0.8,1.1-1.2
						c0.7-0.8,1.4-1.6,2-2.5c1.4-1.7,2.9-3.3,4.8-4.5c1-0.4,1-0.5,2.1-0.9c0,0-0.1,0.1,0,0c0-0.1,0.8-0.3,0.9-0.3
						c1.7-0.4,3.3-0.4,5,0.1c-0.3-0.1-0.4,0-0.1,0l0.3,0l0,0c0.2,0.1,0.5,0.1,0.2,0c1.1,0.3,2,0.9,2.9,1.5c0.9,0.7,1.6,1.5,2.2,2.4
						c0.6,0.9,1.1,1.9,1.3,3c0.2,0.5,0.2,1.1,0.3,1.6c0.1,0.5,0.1,1.1-0.2,1.7c-0.2,0.6-0.7,1.2-1.4,1.4c-0.3,0.1-0.6,0.2-1,0.3
						c-0.3,0-0.6,0.1-0.9,0.1c-1.6,0.1-3.1,0-4.6,0c-0.7,0-1.5,0-2.3,0c-0.4,0-0.8,0-1.2,0l-0.6,0l-0.3,0l-0.1,0l-0.1,0l0,0l0,0l0,0
						l0,0c0.2-0.2-0.3,0.4,0.3-0.4l0,0l0,0l0,0l0,0l-0.3,0.4l0,0l0,0c0,0,0,0,0,0c0,0,0,0,0.1,0c0.1,0,0.2-0.1,0.3-0.1
						C125.3,41.7,125.7,41.6,126.4,41.5z"/>
					<path class="st2" d="M123.7,41.7c-0.1,0-0.5-0.1-0.2-0.1C123.5,41.6,123.7,41.6,123.7,41.7z"/>
					<path class="st2" d="M115.6,41.4c0,0,0.1,0,0.2,0c-0.1,0-0.2,0.1-0.3,0.1C115.5,41.4,115.5,41.4,115.6,41.4z"/>
					<path class="st2" d="M118,41.2c0,0-0.6,0.1-0.9,0.1L118,41.2z"/>
					<path class="st2" d="M120.3,41.3c0.2,0,0.1,0-0.1,0C120.2,41.3,120.3,41.3,120.3,41.3z"/>
					<path class="st2" d="M120.5,41.2c0.2,0,0.3,0,0.4,0C120.9,41.2,120.4,41.3,120.5,41.2z"/>
					<path class="st2" d="M125.5,41.3c0.1,0,0.4,0,0.5,0C125.9,41.3,125.4,41.4,125.5,41.3z"/>
					<path class="st2" d="M127.9,41.2c0.1,0,0.1,0,0.2,0C128.2,41.3,128.1,41.3,127.9,41.2L127.9,41.2z"/>
					<polygon class="st2" points="109.6,39.3 109.6,39.6 109.6,39.5 					"/>
					<path class="st2" d="M117.3,31.8c-0.2,0.1-0.2,0-0.2,0C117.3,31.8,117,31.9,117.3,31.8z"/>
					<polygon class="st2" points="112,39.5 112,39.5 112.1,39.4 					"/>
				</g>
			</g>
		</g>
	</g>
</g>
<g>
</g>
<g>
</g>
<g>
</g>
<g>
</g>
<g>
</g>
<g>
</g>
<g>
</g>
<g>
</g>
<g>
</g>
<g>
</g>
<g>
</g>
<g>
</g>
<g>
</g>
<g>
</g>
<g>
</g>
</svg>
